<?xml version="1.0" encoding="utf-8"?>
<!-- Generator: Adobe Illustrator 24.3.0, SVG Export Plug-In . SVG Version: 6.00 Build 0)  -->
<svg version="1.1" id="Layer_1" xmlns="http://www.w3.org/2000/svg" xmlns:xlink="http://www.w3.org/1999/xlink" x="0px" y="0px"
	 viewBox="0 0 79.7 12" style="enable-background:new 0 0 79.7 12;" xml:space="preserve">
<style type="text/css">
	.st0{fill:#FFFFFF;}
</style>
<g>
	<path class="st0" d="M0,6c0-3.5,2.6-6,6.2-6C8,0,9.6,0.6,10.7,1.8L9.6,2.9c-0.9-1-2-1.4-3.3-1.4C3.6,1.5,1.7,3.4,1.7,6
		s2,4.5,4.6,4.5c1.3,0,2.4-0.5,3.3-1.4l1.1,1.1C9.6,11.4,8,12,6.2,12C2.6,12,0,9.5,0,6z"/>
	<path class="st0" d="M20.3,8.9H14l-1.3,2.9H11l5.3-11.7H18l5.3,11.7h-1.8L20.3,8.9z M19.7,7.6l-2.5-5.7l-2.5,5.7H19.7z"/>
	<path class="st0" d="M26.8,1.6h-4V0.1h9.7v1.5h-4v10.3h-1.7V1.6z"/>
	<path class="st0" d="M41.2,8.9H35l-1.3,2.9H32l5.3-11.7h1.7l5.3,11.7h-1.8L41.2,8.9z M40.6,7.6l-2.5-5.7l-2.5,5.7H40.6z"/>
	<path class="st0" d="M46,0.1h1.7v10.3h6.4v1.5h-8V0.1z"/>
	<path class="st0" d="M54.8,6c0-3.4,2.6-6,6.3-6c3.6,0,6.2,2.5,6.2,6s-2.6,6-6.2,6C57.5,12,54.8,9.4,54.8,6z M65.6,6
		c0-2.6-1.9-4.5-4.5-4.5c-2.6,0-4.6,1.9-4.6,4.5s1.9,4.5,4.6,4.5C63.7,10.5,65.6,8.6,65.6,6z"/>
	<path class="st0" d="M78,5.9h1.6v4.6c-1.2,1-2.8,1.5-4.4,1.5c-3.6,0-6.3-2.5-6.3-6c0-3.5,2.6-6,6.3-6c1.9,0,3.4,0.6,4.5,1.8l-1,1
		c-1-0.9-2.1-1.4-3.4-1.4c-2.7,0-4.7,1.9-4.7,4.5c0,2.6,2,4.5,4.7,4.5c1,0,1.9-0.2,2.7-0.8V5.9z"/>
</g>
</svg>
