<?xml version="1.0" encoding="utf-8"?>
<!-- Generator: Adobe Illustrator 24.3.0, SVG Export Plug-In . SVG Version: 6.00 Build 0)  -->
<svg version="1.1" id="Layer_1" xmlns="http://www.w3.org/2000/svg" xmlns:xlink="http://www.w3.org/1999/xlink" x="0px" y="0px"
	 viewBox="0 0 91.8 12.1" style="enable-background:new 0 0 91.8 12.1;" xml:space="preserve">
<style type="text/css">
	.st0{fill:#FFFFFF;}
</style>
<path class="st0" d="M9.5,4.3c0,2.5-1.9,4.1-4.9,4.1H1.7v3.6H0V0.2h4.6C7.7,0.2,9.5,1.7,9.5,4.3z M7.8,4.3c0-1.7-1.1-2.6-3.3-2.6
	H1.7v5.3h2.9C6.7,6.9,7.8,6,7.8,4.3z"/>
<path class="st0" d="M19.6,11.9L17,8.3c-0.2,0-0.5,0-0.7,0h-2.9v3.6h-1.7V0.2h4.6c3.1,0,4.9,1.5,4.9,4.1c0,1.8-0.9,3.1-2.6,3.7
	l2.8,3.9H19.6z M19.5,4.3c0-1.7-1.1-2.6-3.3-2.6h-2.9v5.3h2.9C18.4,6.9,19.5,6,19.5,4.3z"/>
<path class="st0" d="M22.6,6.1c0-3.4,2.7-6,6.3-6c3.6,0,6.3,2.5,6.3,6s-2.7,6-6.3,6C25.3,12.1,22.6,9.5,22.6,6.1z M33.5,6.1
	c0-2.6-2-4.5-4.6-4.5c-2.6,0-4.6,1.9-4.6,4.5c0,2.6,2,4.5,4.6,4.5C31.5,10.6,33.5,8.7,33.5,6.1z"/>
<path class="st0" d="M37.4,0.2h5c3.8,0,6.4,2.4,6.4,5.9c0,3.5-2.6,5.9-6.4,5.9h-5V0.2z M42.3,10.5c2.9,0,4.8-1.8,4.8-4.4
	c0-2.6-1.9-4.4-4.8-4.4h-3.2v8.8H42.3z"/>
<path class="st0" d="M50.2,6.8V0.1h1.7v6.6c0,2.6,1.2,3.8,3.3,3.8c2.1,0,3.3-1.2,3.3-3.8V0.1h1.6v6.7c0,3.4-1.9,5.2-5,5.2
	C52.1,12,50.2,10.2,50.2,6.8z"/>
<path class="st0" d="M61.7,6.1c0-3.5,2.7-6,6.3-6c1.8,0,3.4,0.6,4.5,1.8l-1.1,1.1c-0.9-1-2-1.4-3.3-1.4c-2.7,0-4.6,1.9-4.6,4.5
	c0,2.6,2,4.5,4.6,4.5c1.3,0,2.4-0.5,3.3-1.4l1.1,1.1c-1.1,1.2-2.7,1.8-4.5,1.8C64.4,12.1,61.7,9.5,61.7,6.1z"/>
<path class="st0" d="M76.7,1.6h-4V0.2h9.8v1.5h-4v10.3h-1.7V1.6z"/>
<path class="st0" d="M82.7,10.6l0.6-1.3c0.9,0.8,2.4,1.4,3.9,1.4c2,0,2.9-0.8,2.9-1.8C90.1,6,83,7.8,83,3.4c0-1.8,1.4-3.4,4.5-3.4
	c1.4,0,2.8,0.4,3.8,1l-0.6,1.3c-1-0.7-2.2-1-3.2-1c-2,0-2.9,0.8-2.9,1.9c0,2.9,7.1,1.1,7.1,5.4c0,1.8-1.5,3.3-4.6,3.3
	C85.4,12.1,83.6,11.5,82.7,10.6z"/>
</svg>
